<svg width="1226" height="756" viewBox="0 0 1226 756" fill="none" xmlns="http://www.w3.org/2000/svg">
<path d="M874 238.599C863.5 227.599 848.5 229.099 847 229.099C849.167 228.432 855.9 227.299 865.5 228.099C877.5 229.099 877 233.099 897 238.599C917 244.099 930 224.599 943 215.599C956 206.599 961.5 208.599 973.5 211.099C983.1 213.099 988.5 223.932 990 229.099C988.333 226.599 983.9 221.399 979.5 220.599C974 219.599 964.5 219.599 955.5 225.599C946.5 231.599 940 234.099 930 251.099C920 268.099 910 266.099 902.5 265.099C895 264.099 884.5 249.599 874 238.599Z" fill="#FB8000"/>
<path d="M355.5 275.599C367.5 284.099 422 270.099 423.5 270.099C418 270.099 402 269.699 382 268.099C357 266.099 354 256.099 343 250.599C332 245.099 323 244.599 307.5 248.099C295.1 250.899 285 271.932 281.5 282.099C281.833 281.432 284.7 278.099 293.5 270.099C304.5 260.099 315.5 260.599 324.5 260.599C333.5 260.599 343.5 267.099 355.5 275.599Z" fill="#FB8000"/>
<path d="M365 61.0992C412.2 12.2992 496.667 4.76588 533 7.09921C482 -5.40083 437 2.09916 428.5 3.59914C364.489 14.8951 302 86.0992 229 160.099C170.6 219.299 52 286.099 0 312.099C30 302.766 93 282.299 105 275.099C120 266.099 196 233.099 264 168.099C332 103.099 306 122.099 365 61.0992Z" fill="#1092B6"/>
<path d="M549.5 24.0992C508.3 -0.700833 439 30.7658 409.5 49.5992L424.5 44.0992C435.667 40.7658 468 34.7992 508 37.5992C558 41.0992 626.5 107.099 657 131.099C681.4 150.299 733.5 174.432 756.5 184.099C781.5 186.266 824.9 189.299 798.5 184.099C765.5 177.599 714.5 143.099 697 131.099C679.5 119.099 601 55.0992 549.5 24.0992Z" fill="#1092B6"/>
<path d="M641.5 471.599C649 481.599 652 502.099 652 503.099C652.5 501.599 654.1 496.499 656.5 488.099C659.5 477.599 672.5 463.599 680.5 455.599C688.5 447.599 691.5 428.099 693 420.599C694.5 413.099 692.5 360.099 693 353.599C693.5 347.099 698 334.099 714 316.599C730 299.099 762 293.099 791 289.599C820 286.099 869.5 294.599 895.5 302.599C916.3 308.999 932.167 320.266 937.5 325.099C934.833 321.766 929.2 314.699 928 313.099C926.5 311.099 903.5 290.099 888 281.599C872.5 273.099 855.5 270.599 835 265.599C814.5 260.599 778.5 261.599 764.5 262.599C750.5 263.599 730 274.599 714 285.599C701.2 294.399 687.333 318.599 682 329.599C681.833 332.766 677.4 339.299 661 340.099C644.6 340.899 641.5 335.766 642 333.099C639.667 326.599 633.2 311.299 626 302.099C617 290.599 593 275.599 581 270.599C569 265.599 555 262.599 536 262.599C517 262.599 494.5 265.099 477.5 268.099C460.5 271.099 416 284.599 392.5 290.099C373.7 294.499 351.333 285.266 342.5 280.099C341.5 278.932 340.1 277.799 342.5 282.599C345.5 288.599 371.5 308.599 392.5 313.099C413.5 317.599 444 308.099 484.5 298.599C525 289.099 554 292.099 578.5 298.599C603 305.099 625 335.599 629 353.599C633 371.599 629.5 420.599 631 439.099C632.5 457.599 634 461.599 641.5 471.599Z" fill="#FB8000"/>
<path d="M484 249.599C507.6 247.999 529.833 252.266 538 254.599L545.5 256.099C544.667 255.599 541.5 253.599 535.5 249.599C528 244.599 523 242.099 507 237.099C491 232.099 453 234.599 441.5 237.099C430 239.599 414.5 245.599 380 239.599C352.4 234.799 326.5 214.599 317 205.099C318.5 207.266 323.5 214.099 331.5 224.099C341.5 236.599 367.5 249.599 389 254.599C410.5 259.599 454.5 251.599 484 249.599Z" fill="#FB8000"/>
<path d="M513 230.599C540 239.599 546.5 247.599 547 248.599C545.833 246.266 542.6 240.899 539 238.099C534.5 234.599 522 230.599 509 222.599C496 214.599 499 213.599 489.5 191.599C481.9 173.999 457 172.932 445.5 174.599C449.333 175.766 458.3 178.799 463.5 181.599C470 185.099 474.5 201.599 477.5 209.099C480.5 216.599 486 221.599 513 230.599Z" fill="#FB8000"/>
<path d="M618.5 275.599C635 287.099 652 324.599 652 325.599C652 323.932 651.1 316.799 647.5 301.599C643 282.599 636 270.599 626.5 260.599C617 250.599 598 247.599 582.5 247.099C570.1 246.699 557.333 250.266 552.5 252.099C553.167 252.266 557.2 252.799 568 253.599C581.5 254.599 602 264.099 618.5 275.599Z" fill="#FB8000"/>
<path d="M716.5 250.099C707.5 252.099 690 264.099 684 274.599C679.2 282.999 673 311.432 670.5 324.599V325.099C676 314.099 690.8 288.399 706 273.599C721.2 258.799 752.333 252.766 766 251.599C764.5 251.099 759.8 249.899 753 249.099C744.5 248.099 725.5 248.099 716.5 250.099Z" fill="#FB8000"/>
<path d="M804.5 232.099C790.1 236.499 778.5 244.599 774.5 248.099L783.5 239.099C785.5 237.099 799.5 229.599 807 226.099C814.5 222.599 821.5 216.599 827 208.099C832.5 199.599 833 189.099 844.5 179.599C853.7 171.999 874 172.432 883 173.599C881.833 173.766 876.8 174.799 866 177.599C852.5 181.099 849 194.599 845.5 207.099C842 219.599 822.5 226.599 804.5 232.099Z" fill="#FB8000"/>
<path d="M837 235.599C826.2 233.599 809.833 238.766 803 241.599L782 251.599C794.667 251.266 823.1 250.999 835.5 252.599C847.9 254.199 874.333 263.599 886 268.099C882.5 264.099 873.6 254.499 866 248.099C856.5 240.099 850.5 238.099 837 235.599Z" fill="#FB8000"/>
<path d="M991 241.599C993 242.799 999.5 256.099 1002.5 262.599C999 261.932 991.3 260.599 988.5 260.599C985 260.599 981 261.099 979 262.599C977 264.099 970.5 267.599 965.5 284.599C960.5 301.599 978 318.599 985 320.599C990.6 322.199 1001 316.266 1005.5 313.099C1004.5 314.099 1000.9 317.399 994.5 322.599C986.5 329.099 974 328.599 965.5 326.599C957 324.599 949.5 311.599 945 299.099C940.5 286.599 941.5 275.599 948.5 257.599C955.5 239.599 988.5 240.099 991 241.599Z" fill="#FB8000"/>
<path d="M978 280.099C979.2 266.899 994.167 264.932 1001.5 265.599C1002.33 266.099 1004.6 267.599 1007 269.599C1010 272.099 1013 280.099 1014 287.099C1015 294.099 1007.5 305.099 1004 308.599C1000.5 312.099 989 316.099 983.5 313.099C978 310.099 976.5 296.599 978 280.099Z" fill="#FB8000"/>
<path d="M1028.5 295.599C1024.5 283.199 1002.83 252.432 992.5 238.599C1000.33 238.099 1018.3 237.399 1027.5 238.599C1039 240.099 1047.5 249.599 1055 261.599C1062.5 273.599 1059 284.599 1059 294.599C1059 302.599 1043.67 315.932 1036 321.599L1030.5 332.099C1030.67 331.599 1031.2 328.999 1032 322.599L1032.03 322.387C1033.01 314.536 1033.46 310.961 1028.5 295.599Z" fill="#FB8000"/>
<path d="M609 600.599C635.5 580.099 631 467.599 630 464.599V462.099C631.833 466.766 636.5 477.599 640.5 483.599C644.372 489.408 647.932 508.18 649.365 517.689C649.494 516.875 649.697 515.714 650 514.099C651.5 506.099 667 477.099 676 469.599C683.2 463.599 690.333 449.432 693 443.099C692.667 486.766 692.2 576.299 693 585.099C694 596.099 704 609.599 753 631.099C783.495 644.48 803.863 643.8 814.387 640.406L821 637.099C819.594 638.247 817.391 639.437 814.387 640.406L806 644.599C801 647.099 758 659.599 714 654.599C678.8 650.599 659.667 627.599 654.5 616.599C650.5 625.599 632.5 645.799 592.5 654.599C552.5 663.399 506.833 646.932 489 637.599C492.833 638.766 505.2 640.999 524 640.599C547.5 640.099 582.5 621.099 609 600.599Z" fill="#1092B6"/>
<path d="M615.5 666.599C625.9 663.799 646.5 648.432 655.5 641.099C659.167 643.932 666.992 650.927 671 653.599C677 657.599 694 667.599 720.5 672.099C747.183 676.63 787 670.599 808 663.599C829 656.599 846.5 650.599 857 649.599C867.5 648.599 886.5 648.099 918 647.099C943.2 646.299 983.833 657.432 1001 663.099C999.667 662.766 995.2 661.799 988 660.599C979 659.099 960.5 658.099 949.5 658.599C938.5 659.099 885 671.599 846.5 687.099C808 702.599 791.5 702.099 748 706.599C713.2 710.199 671.5 690.766 655.5 680.599C652.5 682.599 644.2 688.099 631 694.099C614.5 701.599 603.5 703.099 559.5 705.099C515.5 707.099 464 688.599 419.5 670.599C383.9 656.199 329 660.266 306 664.099C307.333 663.766 315 661.799 335 656.599C360 650.099 403.5 648.099 431.5 647.599C459.5 647.099 470 652.599 480 656.599C490 660.599 518.5 669.099 546.5 675.099C574.5 681.099 602.5 670.099 615.5 666.599Z" fill="#1092B6"/>
<path d="M813 716.099C839.8 710.899 902.167 689.932 930 680.099C928.333 681.099 924.2 683.499 921 685.099C917.8 686.699 902.667 698.432 895.5 704.099C881.833 713.432 848.9 734.099 826.5 742.099C798.5 752.099 751.5 752.599 731.5 751.599C715.5 750.799 674.5 741.932 656 737.599C643.667 740.932 617.4 747.799 611 748.599C603 749.599 551.5 752.599 535.5 751.099C519.5 749.599 471 743.099 449 725.099C431.4 710.699 399 688.766 385 679.599C404 686.266 446.7 701.299 465.5 708.099C489 716.599 545.5 722.599 582 723.599C611.2 724.399 643.5 710.932 656 704.099C660.333 706.766 676 713.899 704 721.099C739 730.099 779.5 722.599 813 716.099Z" fill="#1092B6"/>
<path d="M1002 672.099C1018.8 670.099 1057.67 681.266 1075 687.099C1068.17 686.432 1053 684.999 1047 684.599C1039.5 684.099 1032.5 685.099 1013 688.599C993.5 692.099 945.5 723.599 927 737.599C912.2 748.799 861.5 754.266 838 755.599C839.667 755.432 845.9 753.999 857.5 749.599C872 744.099 903.5 726.599 927 705.099C950.5 683.599 981 674.599 1002 672.099Z" fill="#1092B6"/>
<path d="M1002 672.099C1018.8 670.099 1057.67 681.266 1075 687.099C1068.17 686.432 1053 684.999 1047 684.599C1039.5 684.099 1032.5 685.099 1013 688.599C993.5 692.099 945.5 723.599 927 737.599C912.2 748.799 861.5 754.266 838 755.599C839.667 755.432 845.9 753.999 857.5 749.599C872 744.099 903.5 726.599 927 705.099C950.5 683.599 981 674.599 1002 672.099Z" fill="#1092B6"/>
<path d="M321 671.336C304.2 669.336 265.333 680.502 248 686.336C254.833 685.669 270 684.236 276 683.836C283.5 683.336 290.5 684.336 310 687.836C329.5 691.336 377.5 722.836 396 736.836C410.8 748.036 461.5 753.502 485 754.836C483.333 754.669 477.1 753.236 465.5 748.836C451 743.336 419.5 725.836 396 704.336C372.5 682.836 342 673.836 321 671.336Z" fill="#1092B6"/>
<path d="M321 671.336C304.2 669.336 265.333 680.502 248 686.336C254.833 685.669 270 684.236 276 683.836C283.5 683.336 290.5 684.336 310 687.836C329.5 691.336 377.5 722.836 396 736.836C410.8 748.036 461.5 753.502 485 754.836C483.333 754.669 477.1 753.236 465.5 748.836C451 743.336 419.5 725.836 396 704.336C372.5 682.836 342 673.836 321 671.336Z" fill="#1092B6"/>
<path d="M1121 461.599L1116.5 460.099V454.599L1121 452.372V395.599L1116.5 394.599L1117 388.599L1121.5 387.099L1124.5 391.599L1177.5 374.099V368.099L1183 366.099L1187 371.099L1183 375.599L1216.5 422.099L1221 420.099L1225.5 425.099L1221.5 430.599L1216.5 428.599L1184 473.099L1186.5 476.099L1182 481.099L1176.5 478.599V475.099L1125 457.599L1121 461.599Z" fill="#1E1E1E"/>
</svg>
